<?xml version="1.0" standalone="no"?><!DOCTYPE svg PUBLIC "-//W3C//DTD SVG 1.1//EN" "http://www.w3.org/Graphics/SVG/1.1/DTD/svg11.dtd"><svg t="1681197662019" class="icon" viewBox="256 256 512 512" version="1.1" xmlns="http://www.w3.org/2000/svg" p-id="2701" xmlns:xlink="http://www.w3.org/1999/xlink" width="200" height="200"><path d="M766.54592 318.17728a20.48 20.48 0 0 0-19.1488-18.28864c-140.08832-8.32-219.79136-89.82528-220.53888-90.60864a20.51072 20.51072 0 0 0-14.8224-6.35904h-0.0512c-5.5808 0-10.93632 2.29376-14.80192 6.3232-0.78848 0.82432-80.4864 82.32448-220.57472 90.6496a20.48 20.48 0 0 0-19.15392 18.28864c-0.79872 7.5776-19.28192 186.53184 11.008 270.64832 24.42752 67.83488 153.26208 201.18528 236.62592 231.07072a20.39808 20.39808 0 0 0 13.824 0c83.35872-29.88032 212.19328-163.23584 236.63104-231.07072 30.27968-84.1216 11.80672-263.07584 11.00288-270.65344z m-49.54624 256.77312c-20.15744 55.95648-132.77696 173.00992-204.99968 203.68384-72.22784-30.67392-184.85248-147.72736-204.99968-203.67872-22.12864-61.45024-14.1312-189.57824-10.3424-235.58144C408.5504 328.12032 482.2016 276.31616 512 251.14624c29.7984 25.16992 103.45472 76.97408 215.3472 88.22272 3.79392 45.98784 11.8016 174.06976-10.34752 235.58144z" p-id="2702"></path><path d="M626.87232 456.50432c-18.40128 0-29.9008-19.92192-20.70016-35.85536a23.90016 23.90016 0 0 0-8.75008-32.65024l-32.06656-18.51392a23.90016 23.90016 0 0 0-32.65024 8.75008c-9.20064 15.93344-32.19968 15.93344-41.40032 0a23.9104 23.9104 0 0 0-32.65536-8.75008l-32.06656 18.51392a23.90016 23.90016 0 0 0-8.75008 32.65024c9.20064 15.93344-2.29888 35.85536-20.70016 35.85536a23.9104 23.9104 0 0 0-23.90528 23.90528v37.02784a23.9104 23.9104 0 0 0 23.90528 23.90528c18.40128 0 29.9008 19.92192 20.70016 35.85536a23.9104 23.9104 0 0 0 8.75008 32.65536l32.06656 18.51392a23.90016 23.90016 0 0 0 32.65024-8.75008c9.20064-15.93344 32.19968-15.93344 41.40032 0a23.90016 23.90016 0 0 0 32.65024 8.75008l32.06656-18.51392a23.90016 23.90016 0 0 0 8.75008-32.65024c-9.20064-15.93344 2.29888-35.85536 20.70016-35.85536a23.9104 23.9104 0 0 0 23.90528-23.90528V480.4096a23.90528 23.90528 0 0 0-23.90016-23.90528zM537.6 543.26272c-24.48896 14.13632-55.80288 5.74976-69.9392-18.7392S461.91104 468.72064 486.4 454.58432c24.48896-14.13632 55.80288-5.74976 69.9392 18.7392s5.74976 55.80288-18.7392 69.9392z" p-id="2703"></path></svg>